<svg viewBox="0 0 200 140" xmlns="http://www.w3.org/2000/svg">
<rect x="8" y="14" width="184" height="112" rx="8" stroke="#D9AE6E" stroke-width="2.4" fill="none" stroke-linecap="round" stroke-linejoin="round"/>
<rect x="30" y="56" width="34" height="34" rx="4" stroke="#D9AE6E" stroke-width="2.4" fill="none" stroke-linecap="round" stroke-linejoin="round"/>
<line x1="38" y1="56" x2="38" y2="49" stroke="#D9AE6E" stroke-width="2.4" fill="none" stroke-linecap="round" stroke-linejoin="round"/>
<line x1="48" y1="56" x2="48" y2="49" stroke="#D9AE6E" stroke-width="2.4" fill="none" stroke-linecap="round" stroke-linejoin="round"/>
<line x1="56" y1="56" x2="56" y2="49" stroke="#D9AE6E" stroke-width="2.4" fill="none" stroke-linecap="round" stroke-linejoin="round"/>
<line x1="38" y1="90" x2="38" y2="97" stroke="#D9AE6E" stroke-width="2.4" fill="none" stroke-linecap="round" stroke-linejoin="round"/>
<line x1="48" y1="90" x2="48" y2="97" stroke="#D9AE6E" stroke-width="2.4" fill="none" stroke-linecap="round" stroke-linejoin="round"/>
<line x1="56" y1="90" x2="56" y2="97" stroke="#D9AE6E" stroke-width="2.4" fill="none" stroke-linecap="round" stroke-linejoin="round"/>
<line x1="70" y1="73" x2="126" y2="73" stroke="#D9AE6E" stroke-width="2" stroke-dasharray="5 6" fill="none"/>
<path d="M120,67 L127,73 L120,79" fill="none" stroke="#D9AE6E" stroke-width="2" stroke-linecap="round" stroke-linejoin="round"/>
<circle cx="160" cy="73" r="24" stroke="#D9AE6E" stroke-width="2.4" fill="none" stroke-linecap="round" stroke-linejoin="round"/>
<line x1="160" y1="73" x2="160" y2="58" stroke="#D9AE6E" stroke-width="2.4" fill="none" stroke-linecap="round" stroke-linejoin="round"/>
<line x1="160" y1="73" x2="171" y2="80" stroke="#D9AE6E" stroke-width="2.4" fill="none" stroke-linecap="round" stroke-linejoin="round"/>
<circle cx="160" cy="73" r="2.4" fill="#D9AE6E" stroke="none"/>
<circle cx="98" cy="38" r="11" fill="none" stroke="#D9AE6E" stroke-width="2"/>
<path d="M92,38 L96,43 L105,32" fill="none" stroke="#D9AE6E" stroke-width="2.2" stroke-linecap="round" stroke-linejoin="round"/>
</svg>